<svg xmlns="http://www.w3.org/2000/svg" xml:space="preserve" style="enable-background:new 0 0 36 36" viewBox="0 0 36 36"><path d="M18.2 33c-1.5 0-2.9-.3-4.3-.8s-2.6-1.3-3.7-2.4c-1.1-1.1-2-2.6-2.6-4.4s-1-4.1-1-6.7c0-2.4.3-4.6.8-6.5s1.3-3.6 2.4-4.9 2.3-2.4 3.7-3.1c1.4-.7 3.1-1.1 4.9-1.1 1.9 0 3.6.4 5.1 1.1C25 5 26.2 6 27.1 7.3s1.4 2.7 1.6 4.3h-6.1c-.2-1-.7-1.8-1.5-2.4-.8-.6-1.7-.9-2.8-.9-1.9 0-3.3.8-4.3 2.5-1 1.6-1.5 3.9-1.5 6.7h.2c.4-.9 1-1.6 1.8-2.2s1.6-1.1 2.5-1.4 2-.5 3-.5c1.7 0 3.3.4 4.6 1.2 1.3.8 2.4 1.9 3.2 3.3.8 1.4 1.2 3 1.2 4.8 0 2-.5 3.7-1.4 5.2-.9 1.5-2.2 2.7-3.8 3.6S20.3 33 18.2 33zm0-4.8c.9 0 1.8-.2 2.5-.7.7-.5 1.3-1.1 1.8-1.8s.6-1.6.6-2.6-.2-1.8-.6-2.6c-.4-.8-1-1.4-1.7-1.8-.7-.5-1.6-.7-2.5-.7-.7 0-1.4.1-2 .4-.6.3-1.1.6-1.6 1.1-.4.5-.8 1-1.1 1.6-.3.6-.4 1.3-.4 2 0 .9.2 1.8.6 2.6.4.8 1 1.4 1.8 1.9.8.3 1.6.6 2.6.6z"/></svg>